# xmcd CD database file
#
# Track frame offsets:
#	150
#	21956
#	45255
#	48964
#	70082
#	77828
#	101014
#	134178
#	148769
#	152378
#	174158
#	182086
#	212314
#	214249
#	235255
#
# Disc length: 3389 seconds
#
# Revision: 0
# Processed by: cddbd v1.5.2PL0 Copyright (c) Steve Scherf et al.
# Submitted via: CDex 1.79
#
DISCID=c90d3b0f
DTITLE=Oscar Klein Quintett - Live in Oberpullendorf CD1
DYEAR=1900
DGENRE=Jazz
TTITLE0=Ansage
TTITLE1=Indiana
TTITLE2=Ansage
TTITLE3=Basin Street Blues
TTITLE4=Ansage
TTITLE5=Three Little Words
TTITLE6=Ansage
TTITLE7=Blues For Lightning
TTITLE8=Ansage
TTITLE9=The Sheik Of Araby
TTITLE10=Ansage
TTITLE11=Creole Love Call
TTITLE12=Ansage
TTITLE13=Exactly Like You
TTITLE14=Ansage
EXTD=
EXTT0=
EXTT1=
EXTT2=
EXTT3=
EXTT4=
EXTT5=
EXTT6=
EXTT7=
EXTT8=
EXTT9=
EXTT10=
EXTT11=
EXTT12=
EXTT13=
EXTT14=
PLAYORDER=
